REM DIRINDEX 1\2,1\3,1\4,1\5
REM DIRNAME folder01,folder02,folder03,folder04,folder05
TITLE ""
FILE "Chapter_06.mp3" MP3
  TRACK 01 AUDIO
    TITLE "0:"
    INDEX 01 00:00:00
  TRACK 02 AUDIO
    TITLE "5:cjc087_1612"
    INDEX 01 00:00:07
  TRACK 03 AUDIO
    TITLE "0:"
    INDEX 01 00:02:06
  TRACK 04 AUDIO
    TITLE "5:cjc087_1613"
    INDEX 01 00:03:45
  TRACK 05 AUDIO
    TITLE "0:"
    INDEX 01 00:05:48
  TRACK 06 AUDIO
    TITLE "4:cjc087_1614"
    INDEX 01 00:06:45
  TRACK 07 AUDIO
    TITLE "3:cjc087_1615"
    INDEX 01 00:08:64
  TRACK 08 AUDIO
    TITLE "0:"
    INDEX 01 00:11:25
  TRACK 09 AUDIO
    TITLE "4:cjc087_1616"
    INDEX 01 00:12:24
  TRACK 10 AUDIO
    TITLE "3:cjc087_1617"
    INDEX 01 00:13:73
  TRACK 11 AUDIO
    TITLE "0:"
    INDEX 01 00:15:58
  TRACK 12 AUDIO
    TITLE "4:cjc087_1618"
    INDEX 01 00:16:55
  TRACK 13 AUDIO
    TITLE "3:cjc087_1619"
    INDEX 01 00:19:11
  TRACK 14 AUDIO
    TITLE "0:"
    INDEX 01 00:22:15
  TRACK 15 AUDIO
    TITLE "4:cjc087_1620"
    INDEX 01 00:23:14
  TRACK 16 AUDIO
    TITLE "3:cjc087_1621"
    INDEX 01 00:25:31
  TRACK 17 AUDIO
    TITLE "0:"
    INDEX 01 00:27:51
  TRACK 18 AUDIO
    TITLE "4:cjc087_1622"
    INDEX 01 00:28:51
  TRACK 19 AUDIO
    TITLE "3:cjc087_1623"
    INDEX 01 00:30:16
  TRACK 20 AUDIO
    TITLE "0:"
    INDEX 01 00:32:56
  TRACK 21 AUDIO
    TITLE "4:cjc087_1624"
    INDEX 01 00:33:54
  TRACK 22 AUDIO
    TITLE "3:cjc087_1625"
    INDEX 01 00:36:13
  TRACK 23 AUDIO
    TITLE "0:"
    INDEX 01 00:39:41
  TRACK 24 AUDIO
    TITLE "4:cjc087_1626"
    INDEX 01 00:40:38
  TRACK 25 AUDIO
    TITLE "3:cjc087_1627"
    INDEX 01 00:42:19
  TRACK 26 AUDIO
    TITLE "0:"
    INDEX 01 00:44:32
  TRACK 27 AUDIO
    TITLE "5:cjc087_1628"
    INDEX 01 00:45:67
  TRACK 28 AUDIO
    TITLE "0:"
    INDEX 01 00:47:66
  TRACK 29 AUDIO
    TITLE "3:cjc087_1629"
    INDEX 01 00:48:63
  TRACK 30 AUDIO
    TITLE "4:cjc087_1630"
    INDEX 01 00:50:70
  TRACK 31 AUDIO
    TITLE "0:"
    INDEX 01 00:52:04
  TRACK 32 AUDIO
    TITLE "3:cjc087_1631"
    INDEX 01 00:53:02
  TRACK 33 AUDIO
    TITLE "4:cjc087_1632"
    INDEX 01 00:55:55
  TRACK 34 AUDIO
    TITLE "0:"
    INDEX 01 00:58:60
  TRACK 35 AUDIO
    TITLE "3:cjc087_1633"
    INDEX 01 00:59:47
  TRACK 36 AUDIO
    TITLE "4:cjc087_1634"
    INDEX 01 01:01:40
  TRACK 37 AUDIO
    TITLE "0:"
    INDEX 01 01:03:27
  TRACK 38 AUDIO
    TITLE "3:cjc087_1635"
    INDEX 01 01:04:27
  TRACK 39 AUDIO
    TITLE "4:cjc087_1636"
    INDEX 01 01:06:57
  TRACK 40 AUDIO
    TITLE "0:"
    INDEX 01 01:08:56
  TRACK 41 AUDIO
    TITLE "3:cjc087_1637"
    INDEX 01 01:09:48
  TRACK 42 AUDIO
    TITLE "4:cjc087_1638"
    INDEX 01 01:12:19
  TRACK 43 AUDIO
    TITLE "0:"
    INDEX 01 01:14:19
  TRACK 44 AUDIO
    TITLE "3:cjc087_1639"
    INDEX 01 01:15:17
  TRACK 45 AUDIO
    TITLE "4:cjc087_1640"
    INDEX 01 01:18:58
  TRACK 46 AUDIO
    TITLE "0:"
    INDEX 01 01:21:20
  TRACK 47 AUDIO
    TITLE "5:cjc087_1641"
    INDEX 01 01:22:54
  TRACK 48 AUDIO
    TITLE "0:"
    INDEX 01 01:24:49
  TRACK 49 AUDIO
    TITLE "4:cjc087_1642"
    INDEX 01 01:25:49
  TRACK 50 AUDIO
    TITLE "3:cjc087_1643"
    INDEX 01 01:27:12
  TRACK 51 AUDIO
    TITLE "0:"
    INDEX 01 01:29:23
  TRACK 52 AUDIO
    TITLE "4:cjc087_1644"
    INDEX 01 01:30:20
  TRACK 53 AUDIO
    TITLE "3:cjc087_1645"
    INDEX 01 01:31:57
  TRACK 54 AUDIO
    TITLE "0:"
    INDEX 01 01:33:48
  TRACK 55 AUDIO
    TITLE "4:cjc087_1646"
    INDEX 01 01:34:50
  TRACK 56 AUDIO
    TITLE "3:cjc087_1647"
    INDEX 01 01:36:47
  TRACK 57 AUDIO
    TITLE "0:"
    INDEX 01 01:38:73
  TRACK 58 AUDIO
    TITLE "4:cjc087_1648"
    INDEX 01 01:39:70
  TRACK 59 AUDIO
    TITLE "3:cjc087_1649"
    INDEX 01 01:42:59
  TRACK 60 AUDIO
    TITLE "0:"
    INDEX 01 01:46:31
  TRACK 61 AUDIO
    TITLE "4:cjc087_1650"
    INDEX 01 01:47:29
  TRACK 62 AUDIO
    TITLE "3:cjc087_1651"
    INDEX 01 01:49:26
  TRACK 63 AUDIO
    TITLE "0:"
    INDEX 01 01:51:42
  TRACK 64 AUDIO
    TITLE "4:cjc087_1652"
    INDEX 01 01:52:40
  TRACK 65 AUDIO
    TITLE "3:cjc087_1653"
    INDEX 01 01:54:64
  TRACK 66 AUDIO
    TITLE "0:"
    INDEX 01 01:58:05
  TRACK 67 AUDIO
    TITLE "4:cjc087_1654"
    INDEX 01 01:59:04
  TRACK 68 AUDIO
    TITLE "3:cjc087_1655"
    INDEX 01 02:01:11
  TRACK 69 AUDIO
    TITLE "0:"
    INDEX 01 02:03:49
  TRACK 70 AUDIO
    TITLE "5:cjc087_1656"
    INDEX 01 02:05:09
  TRACK 71 AUDIO
    TITLE "0:"
    INDEX 01 02:07:08
  TRACK 72 AUDIO
    TITLE "4:cjc087_1657"
    INDEX 01 02:08:03
  TRACK 73 AUDIO
    TITLE "3:cjc087_1658"
    INDEX 01 02:10:20
  TRACK 74 AUDIO
    TITLE "0:"
    INDEX 01 02:13:10
  TRACK 75 AUDIO
    TITLE "4:cjc087_1659"
    INDEX 01 02:14:08
  TRACK 76 AUDIO
    TITLE "3:cjc087_1660"
    INDEX 01 02:15:49
  TRACK 77 AUDIO
    TITLE "0:"
    INDEX 01 02:17:55
  TRACK 78 AUDIO
    TITLE "4:cjc087_1661"
    INDEX 01 02:18:55
  TRACK 79 AUDIO
    TITLE "3:cjc087_1662"
    INDEX 01 02:20:36
  TRACK 80 AUDIO
    TITLE "0:"
    INDEX 01 02:23:30
  TRACK 81 AUDIO
    TITLE "4:cjc087_1663"
    INDEX 01 02:24:28
  TRACK 82 AUDIO
    TITLE "3:cjc087_1664"
    INDEX 01 02:26:60
  TRACK 83 AUDIO
    TITLE "0:"
    INDEX 01 02:29:49
  TRACK 84 AUDIO
    TITLE "4:cjc087_1665"
    INDEX 01 02:30:46
  TRACK 85 AUDIO
    TITLE "3:cjc087_1666"
    INDEX 01 02:32:57
  TRACK 86 AUDIO
    TITLE "0:"
    INDEX 01 02:35:20
  TRACK 87 AUDIO
    TITLE "4:cjc087_1667"
    INDEX 01 02:36:19
  TRACK 88 AUDIO
    TITLE "3:cjc087_1668"
    INDEX 01 02:38:50
  TRACK 89 AUDIO
    TITLE "0:"
    INDEX 01 02:41:64
  TRACK 90 AUDIO
    TITLE "4:cjc087_1669"
    INDEX 01 02:42:61
  TRACK 91 AUDIO
    TITLE "3:cjc087_1670"
    INDEX 01 02:44:62
  TRACK 92 AUDIO
    TITLE "0:"
    INDEX 01 02:47:35
  TRACK 93 AUDIO
    TITLE "5:cjc087_1671"
    INDEX 01 02:48:70
  TRACK 94 AUDIO
    TITLE "0:"
    INDEX 01 02:50:65
  TRACK 95 AUDIO
    TITLE "4:cjc087_1672"
    INDEX 01 02:51:58
  TRACK 96 AUDIO
    TITLE "3:cjc087_1673"
    INDEX 01 02:54:45
  TRACK 97 AUDIO
    TITLE "0:"
    INDEX 01 02:57:33
  TRACK 98 AUDIO
    TITLE "4:cjc087_1674"
    INDEX 01 02:58:37
  TRACK 99 AUDIO
    TITLE "3:cjc087_1675"
    INDEX 01 03:02:70
  TRACK 100 AUDIO
    TITLE "0:"
    INDEX 01 03:07:30
  TRACK 101 AUDIO
    TITLE "4:cjc087_1676"
    INDEX 01 03:08:27
  TRACK 102 AUDIO
    TITLE "3:cjc087_1677"
    INDEX 01 03:10:69
  TRACK 103 AUDIO
    TITLE "0:"
    INDEX 01 03:13:62
  TRACK 104 AUDIO
    TITLE "4:cjc087_1678"
    INDEX 01 03:14:59
  TRACK 105 AUDIO
    TITLE "3:cjc087_1679"
    INDEX 01 03:17:57
  TRACK 106 AUDIO
    TITLE "0:"
    INDEX 01 03:20:42
  TRACK 107 AUDIO
    TITLE "4:cjc087_1680"
    INDEX 01 03:21:40
  TRACK 108 AUDIO
    TITLE "3:cjc087_1681"
    INDEX 01 03:23:60
  TRACK 109 AUDIO
    TITLE "0:"
    INDEX 01 03:26:17
  TRACK 110 AUDIO
    TITLE "2:cjc087_1682"
    INDEX 01 03:27:62
  TRACK 111 AUDIO
    TITLE "0:"
    INDEX 01 03:35:22
  TRACK 112 AUDIO
    TITLE "5:cjc087_1683"
    INDEX 01 03:36:65
  TRACK 113 AUDIO
    TITLE "0:"
    INDEX 01 03:38:69
  TRACK 114 AUDIO
    TITLE "4:cjc087_1684"
    INDEX 01 03:39:69
  TRACK 115 AUDIO
    TITLE "3:cjc087_1685"
    INDEX 01 03:42:08
  TRACK 116 AUDIO
    TITLE "0:"
    INDEX 01 03:44:64
  TRACK 117 AUDIO
    TITLE "4:cjc087_1686"
    INDEX 01 03:45:62
  TRACK 118 AUDIO
    TITLE "3:cjc087_1687"
    INDEX 01 03:47:47
  TRACK 119 AUDIO
    TITLE "0:"
    INDEX 01 03:50:00
  TRACK 120 AUDIO
    TITLE "4:cjc087_1688"
    INDEX 01 03:50:73
  TRACK 121 AUDIO
    TITLE "3:cjc087_1689"
    INDEX 01 03:53:04
  TRACK 122 AUDIO
    TITLE "0:"
    INDEX 01 03:55:52
  TRACK 123 AUDIO
    TITLE "4:cjc087_1690"
    INDEX 01 03:56:50
  TRACK 124 AUDIO
    TITLE "3:cjc087_1691"
    INDEX 01 03:59:21
  TRACK 125 AUDIO
    TITLE "0:"
    INDEX 01 04:02:05
  TRACK 126 AUDIO
    TITLE "4:cjc087_1692"
    INDEX 01 04:03:03
  TRACK 127 AUDIO
    TITLE "3:cjc087_1693"
    INDEX 01 04:06:56
  TRACK 128 AUDIO
    TITLE "0:"
    INDEX 01 04:11:28
  TRACK 129 AUDIO
    TITLE "4:cjc087_1694"
    INDEX 01 04:12:25
  TRACK 130 AUDIO
    TITLE "3:cjc087_1695"
    INDEX 01 04:14:24
  TRACK 131 AUDIO
    TITLE "0:"
    INDEX 01 04:16:56
  TRACK 132 AUDIO
    TITLE "4:cjc087_1696"
    INDEX 01 04:17:56
  TRACK 133 AUDIO
    TITLE "3:cjc087_1697"
    INDEX 01 04:19:47
  TRACK 134 AUDIO
    TITLE "0:"
    INDEX 01 04:22:08
  TRACK 135 AUDIO
    TITLE "5:cjc087_1698"
    INDEX 01 04:23:43
  TRACK 136 AUDIO
    TITLE "0:"
    INDEX 01 04:25:40
  TRACK 137 AUDIO
    TITLE "4:cjc087_1699"
    INDEX 01 04:26:37
  TRACK 138 AUDIO
    TITLE "3:cjc087_1700"
    INDEX 01 04:28:34
  TRACK 139 AUDIO
    TITLE "0:"
    INDEX 01 04:30:23
  TRACK 140 AUDIO
    TITLE "4:cjc087_1701"
    INDEX 01 04:31:21
  TRACK 141 AUDIO
    TITLE "3:cjc087_1702"
    INDEX 01 04:33:00
  TRACK 142 AUDIO
    TITLE "0:"
    INDEX 01 04:35:15
  TRACK 143 AUDIO
    TITLE "4:cjc087_1703"
    INDEX 01 04:36:12
  TRACK 144 AUDIO
    TITLE "3:cjc087_1704"
    INDEX 01 04:38:66
  TRACK 145 AUDIO
    TITLE "0:"
    INDEX 01 04:41:01
  TRACK 146 AUDIO
    TITLE "4:cjc087_1705"
    INDEX 01 04:41:74
  TRACK 147 AUDIO
    TITLE "3:cjc087_1706"
    INDEX 01 04:44:43
  TRACK 148 AUDIO
    TITLE "0:"
    INDEX 01 04:46:18
  TRACK 149 AUDIO
    TITLE "4:cjc087_1707"
    INDEX 01 04:47:14
  TRACK 150 AUDIO
    TITLE "3:cjc087_1708"
    INDEX 01 04:49:24
  TRACK 151 AUDIO
    TITLE "0:"
    INDEX 01 04:51:14
  TRACK 152 AUDIO
    TITLE "4:cjc087_1709"
    INDEX 01 04:52:15
  TRACK 153 AUDIO
    TITLE "3:cjc087_1710"
    INDEX 01 04:57:18
  TRACK 154 AUDIO
    TITLE "0:"
    INDEX 01 05:01:69
  TRACK 155 AUDIO
    TITLE "4:cjc087_1711"
    INDEX 01 05:02:68
  TRACK 156 AUDIO
    TITLE "3:cjc087_1712"
    INDEX 01 05:04:55
  TRACK 157 AUDIO
    TITLE "0:"
    INDEX 01 05:06:56
  TRACK 158 AUDIO
    TITLE "4:cjc087_1713"
    INDEX 01 05:07:56
  TRACK 159 AUDIO
    TITLE "3:cjc087_1714"
    INDEX 01 05:10:30
  TRACK 160 AUDIO
    TITLE "0:"
    INDEX 01 05:13:05
  TRACK 161 AUDIO
    TITLE "5:cjc087_1715"
    INDEX 01 05:14:46
  TRACK 162 AUDIO
    TITLE "0:"
    INDEX 01 05:16:49
  TRACK 163 AUDIO
    TITLE "4:cjc087_1716"
    INDEX 01 05:17:46
  TRACK 164 AUDIO
    TITLE "3:cjc087_1717"
    INDEX 01 05:20:29
  TRACK 165 AUDIO
    TITLE "0:"
    INDEX 01 05:23:70
  TRACK 166 AUDIO
    TITLE "4:cjc087_1718"
    INDEX 01 05:24:68
  TRACK 167 AUDIO
    TITLE "3:cjc087_1719"
    INDEX 01 05:27:09
  TRACK 168 AUDIO
    TITLE "0:"
    INDEX 01 05:30:06
  TRACK 169 AUDIO
    TITLE "4:cjc087_1720"
    INDEX 01 05:31:03
  TRACK 170 AUDIO
    TITLE "3:cjc087_1721"
    INDEX 01 05:34:04
  TRACK 171 AUDIO
    TITLE "0:"
    INDEX 01 05:37:51
  TRACK 172 AUDIO
    TITLE "4:cjc087_1722"
    INDEX 01 05:38:50
  TRACK 173 AUDIO
    TITLE "3:cjc087_1723"
    INDEX 01 05:41:23
  TRACK 174 AUDIO
    TITLE "0:"
    INDEX 01 05:44:24
  TRACK 175 AUDIO
    TITLE "4:cjc087_1724"
    INDEX 01 05:45:21
  TRACK 176 AUDIO
    TITLE "3:cjc087_1725"
    INDEX 01 05:47:53
  TRACK 177 AUDIO
    TITLE "0:"
    INDEX 01 05:49:34
  TRACK 178 AUDIO
    TITLE "4:cjc087_1726"
    INDEX 01 05:50:34
  TRACK 179 AUDIO
    TITLE "3:cjc087_1727"
    INDEX 01 05:54:22
  TRACK 180 AUDIO
    TITLE "0:"
    INDEX 01 05:57:40
  TRACK 181 AUDIO
    TITLE "4:cjc087_1728"
    INDEX 01 05:58:39
  TRACK 182 AUDIO
    TITLE "3:cjc087_1729"
    INDEX 01 06:00:54
  TRACK 183 AUDIO
    TITLE "0:"
    INDEX 01 06:03:15
  TRACK 184 AUDIO
    TITLE "5:cjc087_1730"
    INDEX 01 06:04:52
  TRACK 185 AUDIO
    TITLE "0:"
    INDEX 01 06:06:56
  TRACK 186 AUDIO
    TITLE "4:cjc087_1731"
    INDEX 01 06:07:52
  TRACK 187 AUDIO
    TITLE "3:cjc087_1732"
    INDEX 01 06:09:57
  TRACK 188 AUDIO
    TITLE "0:"
    INDEX 01 06:12:39
  TRACK 189 AUDIO
    TITLE "4:cjc087_1733"
    INDEX 01 06:13:37
  TRACK 190 AUDIO
    TITLE "3:cjc087_1734"
    INDEX 01 06:15:03
  TRACK 191 AUDIO
    TITLE "0:"
    INDEX 01 06:17:23
  TRACK 192 AUDIO
    TITLE "4:cjc087_1735"
    INDEX 01 06:18:22
  TRACK 193 AUDIO
    TITLE "3:cjc087_1736"
    INDEX 01 06:21:01
  TRACK 194 AUDIO
    TITLE "0:"
    INDEX 01 06:23:57
  TRACK 195 AUDIO
    TITLE "4:cjc087_1737"
    INDEX 01 06:24:54
  TRACK 196 AUDIO
    TITLE "3:cjc087_1738"
    INDEX 01 06:27:51
  TRACK 197 AUDIO
    TITLE "0:"
    INDEX 01 06:30:08
  TRACK 198 AUDIO
    TITLE "4:cjc087_1739"
    INDEX 01 06:31:07
  TRACK 199 AUDIO
    TITLE "3:cjc087_1740"
    INDEX 01 06:32:62
  TRACK 200 AUDIO
    TITLE "0:"
    INDEX 01 06:36:52
  TRACK 201 AUDIO
    TITLE "4:cjc087_1741"
    INDEX 01 06:37:49
  TRACK 202 AUDIO
    TITLE "3:cjc087_1742"
    INDEX 01 06:40:02
  TRACK 203 AUDIO
    TITLE "0:"
    INDEX 01 06:41:45
  TRACK 204 AUDIO
    TITLE "4:cjc087_1743"
    INDEX 01 06:42:50
  TRACK 205 AUDIO
    TITLE "3:cjc087_1744"
    INDEX 01 06:44:26
  TRACK 206 AUDIO
    TITLE "0:"
    INDEX 01 06:46:46
  TRACK 207 AUDIO
    TITLE "5:cjc087_1745"
    INDEX 01 06:48:08
  TRACK 208 AUDIO
    TITLE "0:"
    INDEX 01 06:49:74
  TRACK 209 AUDIO
    TITLE "4:cjc087_1746"
    INDEX 01 06:50:71
  TRACK 210 AUDIO
    TITLE "3:cjc087_1747"
    INDEX 01 06:52:70
  TRACK 211 AUDIO
    TITLE "0:"
    INDEX 01 06:55:14
  TRACK 212 AUDIO
    TITLE "4:cjc087_1748"
    INDEX 01 06:56:11
  TRACK 213 AUDIO
    TITLE "3:cjc087_1749"
    INDEX 01 06:58:61
  TRACK 214 AUDIO
    TITLE "0:"
    INDEX 01 07:01:63
  TRACK 215 AUDIO
    TITLE "4:cjc087_1750"
    INDEX 01 07:02:61
  TRACK 216 AUDIO
    TITLE "3:cjc087_1751"
    INDEX 01 07:05:10
  TRACK 217 AUDIO
    TITLE "0:"
    INDEX 01 07:07:52
  TRACK 218 AUDIO
    TITLE "4:cjc087_1752"
    INDEX 01 07:08:52
  TRACK 219 AUDIO
    TITLE "3:cjc087_1753"
    INDEX 01 07:11:13
  TRACK 220 AUDIO
    TITLE "0:"
    INDEX 01 07:14:27
  TRACK 221 AUDIO
    TITLE "4:cjc087_1754"
    INDEX 01 07:15:24
  TRACK 222 AUDIO
    TITLE "3:cjc087_1755"
    INDEX 01 07:17:66
  TRACK 223 AUDIO
    TITLE "0:"
    INDEX 01 07:21:01
  TRACK 224 AUDIO
    TITLE "4:cjc087_1756"
    INDEX 01 07:21:74
  TRACK 225 AUDIO
    TITLE "3:cjc087_1757"
    INDEX 01 07:24:10
  TRACK 226 AUDIO
    TITLE "0:"
    INDEX 01 07:26:10
  TRACK 227 AUDIO
    TITLE "4:cjc087_1758"
    INDEX 01 07:27:10
  TRACK 228 AUDIO
    TITLE "3:cjc087_1759"
    INDEX 01 07:28:45
  TRACK 229 AUDIO
    TITLE "0:"
    INDEX 01 07:30:45
  TRACK 230 AUDIO
    TITLE "2:cjc087_1760"
    INDEX 01 07:32:07
  TRACK 231 AUDIO
    TITLE "0:"
    INDEX 01 08:07:05
  TRACK 232 AUDIO
    TITLE "5:cjc087_1761"
    INDEX 01 08:08:46
  TRACK 233 AUDIO
    TITLE "0:"
    INDEX 01 08:10:59
  TRACK 234 AUDIO
    TITLE "4:cjc087_1762"
    INDEX 01 08:11:60
  TRACK 235 AUDIO
    TITLE "3:cjc087_1763"
    INDEX 01 08:13:57
  TRACK 236 AUDIO
    TITLE "0:"
    INDEX 01 08:16:16
  TRACK 237 AUDIO
    TITLE "4:cjc087_1764"
    INDEX 01 08:17:14
  TRACK 238 AUDIO
    TITLE "3:cjc087_1765"
    INDEX 01 08:20:12
  TRACK 239 AUDIO
    TITLE "0:"
    INDEX 01 08:22:58
  TRACK 240 AUDIO
    TITLE "4:cjc087_1766"
    INDEX 01 08:23:55
  TRACK 241 AUDIO
    TITLE "3:cjc087_1767"
    INDEX 01 08:26:26
  TRACK 242 AUDIO
    TITLE "0:"
    INDEX 01 08:28:60
  TRACK 243 AUDIO
    TITLE "4:cjc087_1768"
    INDEX 01 08:29:60
  TRACK 244 AUDIO
    TITLE "3:cjc087_1769"
    INDEX 01 08:31:69
  TRACK 245 AUDIO
    TITLE "0:"
    INDEX 01 08:34:12
  TRACK 246 AUDIO
    TITLE "4:cjc087_1770"
    INDEX 01 08:35:12
  TRACK 247 AUDIO
    TITLE "3:cjc087_1771"
    INDEX 01 08:37:32
  TRACK 248 AUDIO
    TITLE "0:"
    INDEX 01 08:39:70
  TRACK 249 AUDIO
    TITLE "4:cjc087_1772"
    INDEX 01 08:40:66
  TRACK 250 AUDIO
    TITLE "3:cjc087_1773"
    INDEX 01 08:43:29
  TRACK 251 AUDIO
    TITLE "0:"
    INDEX 01 08:45:35
  TRACK 252 AUDIO
    TITLE "4:cjc087_1774"
    INDEX 01 08:46:31
  TRACK 253 AUDIO
    TITLE "3:cjc087_1775"
    INDEX 01 08:48:38
  TRACK 254 AUDIO
    TITLE "0:"
    INDEX 01 08:51:11
  TRACK 255 AUDIO
    TITLE "5:cjc087_1776"
    INDEX 01 08:52:45
  TRACK 256 AUDIO
    TITLE "0:"
    INDEX 01 08:54:50
  TRACK 257 AUDIO
    TITLE "3:cjc087_1777"
    INDEX 01 08:55:48
  TRACK 258 AUDIO
    TITLE "4:cjc087_1778"
    INDEX 01 08:57:25
  TRACK 259 AUDIO
    TITLE "0:"
    INDEX 01 08:59:04
  TRACK 260 AUDIO
    TITLE "3:cjc087_1779"
    INDEX 01 08:59:71
  TRACK 261 AUDIO
    TITLE "4:cjc087_1780"
    INDEX 01 09:02:14
  TRACK 262 AUDIO
    TITLE "0:"
    INDEX 01 09:03:65
  TRACK 263 AUDIO
    TITLE "3:cjc087_1781"
    INDEX 01 09:04:62
  TRACK 264 AUDIO
    TITLE "4:cjc087_1782"
    INDEX 01 09:08:17
  TRACK 265 AUDIO
    TITLE "0:"
    INDEX 01 09:09:57
  TRACK 266 AUDIO
    TITLE "3:cjc087_1783"
    INDEX 01 09:10:55
  TRACK 267 AUDIO
    TITLE "4:cjc087_1784"
    INDEX 01 09:14:16
  TRACK 268 AUDIO
    TITLE "0:"
    INDEX 01 09:16:30
  TRACK 269 AUDIO
    TITLE "3:cjc087_1785"
    INDEX 01 09:17:24
  TRACK 270 AUDIO
    TITLE "4:cjc087_1786"
    INDEX 01 09:21:04
  TRACK 271 AUDIO
    TITLE "0:"
    INDEX 01 09:23:56
  TRACK 272 AUDIO
    TITLE "3:cjc087_1787"
    INDEX 01 09:24:53
  TRACK 273 AUDIO
    TITLE "4:cjc087_1788"
    INDEX 01 09:26:48
  TRACK 274 AUDIO
    TITLE "0:"
    INDEX 01 09:28:55
  TRACK 275 AUDIO
    TITLE "3:cjc087_1789"
    INDEX 01 09:29:52
  TRACK 276 AUDIO
    TITLE "4:cjc087_1790"
    INDEX 01 09:32:02
  TRACK 277 AUDIO
    TITLE "0:"
    INDEX 01 09:34:48
  TRACK 278 AUDIO
    TITLE "5:cjc087_1791"
    INDEX 01 09:36:01
  TRACK 279 AUDIO
    TITLE "0:"
    INDEX 01 09:38:06
  TRACK 280 AUDIO
    TITLE "4:cjc087_1792"
    INDEX 01 09:39:06
  TRACK 281 AUDIO
    TITLE "3:cjc087_1793"
    INDEX 01 09:40:54
  TRACK 282 AUDIO
    TITLE "0:"
    INDEX 01 09:42:37
  TRACK 283 AUDIO
    TITLE "4:cjc087_1794"
    INDEX 01 09:43:35
  TRACK 284 AUDIO
    TITLE "3:cjc087_1795"
    INDEX 01 09:45:18
  TRACK 285 AUDIO
    TITLE "0:"
    INDEX 01 09:47:48
  TRACK 286 AUDIO
    TITLE "4:cjc087_1796"
    INDEX 01 09:48:46
  TRACK 287 AUDIO
    TITLE "3:cjc087_1797"
    INDEX 01 09:50:29
  TRACK 288 AUDIO
    TITLE "0:"
    INDEX 01 09:52:34
  TRACK 289 AUDIO
    TITLE "4:cjc087_1798"
    INDEX 01 09:53:33
  TRACK 290 AUDIO
    TITLE "3:cjc087_1799"
    INDEX 01 09:55:01
  TRACK 291 AUDIO
    TITLE "0:"
    INDEX 01 09:58:44
  TRACK 292 AUDIO
    TITLE "4:cjc087_1800"
    INDEX 01 09:59:44
  TRACK 293 AUDIO
    TITLE "3:cjc087_1801"
    INDEX 01 10:02:22
  TRACK 294 AUDIO
    TITLE "0:"
    INDEX 01 10:04:35
  TRACK 295 AUDIO
    TITLE "4:cjc087_1802"
    INDEX 01 10:05:33
  TRACK 296 AUDIO
    TITLE "3:cjc087_1803"
    INDEX 01 10:07:39
  TRACK 297 AUDIO
    TITLE "0:"
    INDEX 01 10:09:42
  TRACK 298 AUDIO
    TITLE "4:cjc087_1804"
    INDEX 01 10:10:41
  TRACK 299 AUDIO
    TITLE "3:cjc087_1805"
    INDEX 01 10:11:63
  TRACK 300 AUDIO
    TITLE "0:"
    INDEX 01 10:13:07
  TRACK 301 AUDIO
    TITLE "5:cjc087_1806"
    INDEX 01 10:14:41
  TRACK 302 AUDIO
    TITLE "0:"
    INDEX 01 10:16:48
  TRACK 303 AUDIO
    TITLE "4:cjc087_1807"
    INDEX 01 10:17:47
  TRACK 304 AUDIO
    TITLE "3:cjc087_1808"
    INDEX 01 10:20:03
  TRACK 305 AUDIO
    TITLE "0:"
    INDEX 01 10:22:49
  TRACK 306 AUDIO
    TITLE "4:cjc087_1809"
    INDEX 01 10:23:46
  TRACK 307 AUDIO
    TITLE "3:cjc087_1810"
    INDEX 01 10:25:51
  TRACK 308 AUDIO
    TITLE "0:"
    INDEX 01 10:28:49
  TRACK 309 AUDIO
    TITLE "4:cjc087_1811"
    INDEX 01 10:29:47
  TRACK 310 AUDIO
    TITLE "3:cjc087_1812"
    INDEX 01 10:31:65
  TRACK 311 AUDIO
    TITLE "0:"
    INDEX 01 10:34:48
  TRACK 312 AUDIO
    TITLE "4:cjc087_1813"
    INDEX 01 10:35:43
  TRACK 313 AUDIO
    TITLE "3:cjc087_1814"
    INDEX 01 10:37:64
  TRACK 314 AUDIO
    TITLE "0:"
    INDEX 01 10:40:31
  TRACK 315 AUDIO
    TITLE "5:cjc087_1815"
    INDEX 01 10:41:66
  TRACK 316 AUDIO
    TITLE "0:"
    INDEX 01 10:43:70
  TRACK 317 AUDIO
    TITLE "4:cjc087_1816"
    INDEX 01 10:44:68
  TRACK 318 AUDIO
    TITLE "3:cjc087_1817"
    INDEX 01 10:46:67
  TRACK 319 AUDIO
    TITLE "0:"
    INDEX 01 10:49:16
  TRACK 320 AUDIO
    TITLE "4:cjc087_1818"
    INDEX 01 10:50:14
  TRACK 321 AUDIO
    TITLE "3:cjc087_1819"
    INDEX 01 10:55:15
  TRACK 322 AUDIO
    TITLE "0:"
    INDEX 01 10:59:73
  TRACK 323 AUDIO
    TITLE "4:cjc087_1820"
    INDEX 01 11:01:00
  TRACK 324 AUDIO
    TITLE "3:cjc087_1821"
    INDEX 01 11:03:10
  TRACK 325 AUDIO
    TITLE "0:"
    INDEX 01 11:05:17
  TRACK 326 AUDIO
    TITLE "4:cjc087_1822"
    INDEX 01 11:06:17
  TRACK 327 AUDIO
    TITLE "3:cjc087_1823"
    INDEX 01 11:08:47
  TRACK 328 AUDIO
    TITLE "0:"
    INDEX 01 11:10:73
  TRACK 329 AUDIO
    TITLE "4:cjc087_1824"
    INDEX 01 11:11:73
  TRACK 330 AUDIO
    TITLE "3:cjc087_1825"
    INDEX 01 11:14:32
  TRACK 331 AUDIO
    TITLE "0:"
    INDEX 01 11:16:70
  TRACK 332 AUDIO
    TITLE "4:cjc087_1826"
    INDEX 01 11:17:67
  TRACK 333 AUDIO
    TITLE "3:cjc087_1827"
    INDEX 01 11:20:07
  TRACK 334 AUDIO
    TITLE "0:"
    INDEX 01 11:23:15
  TRACK 335 AUDIO
    TITLE "2:cjc087_1828"
    INDEX 01 11:24:52
  TRACK 336 AUDIO
    TITLE "0:"
    INDEX 01 11:39:65
  TRACK 337 AUDIO
    TITLE "5:cjc087_1829"
    INDEX 01 11:41:33
  TRACK 338 AUDIO
    TITLE "0:"
    INDEX 01 11:43:39
  TRACK 339 AUDIO
    TITLE "4:cjc087_1830"
    INDEX 01 11:44:37
  TRACK 340 AUDIO
    TITLE "3:cjc087_1831"
    INDEX 01 11:46:71
  TRACK 341 AUDIO
    TITLE "0:"
    INDEX 01 11:49:42
  TRACK 342 AUDIO
    TITLE "4:cjc087_1832"
    INDEX 01 11:50:39
  TRACK 343 AUDIO
    TITLE "3:cjc087_1833"
    INDEX 01 11:52:11
  TRACK 344 AUDIO
    TITLE "0:"
    INDEX 01 11:54:00
  TRACK 345 AUDIO
    TITLE "4:cjc087_1834"
    INDEX 01 11:54:72
  TRACK 346 AUDIO
    TITLE "3:cjc087_1835"
    INDEX 01 11:57:02
  TRACK 347 AUDIO
    TITLE "0:"
    INDEX 01 11:59:46
  TRACK 348 AUDIO
    TITLE "4:cjc087_1836"
    INDEX 01 12:00:46
  TRACK 349 AUDIO
    TITLE "3:cjc087_1837"
    INDEX 01 12:03:58
  TRACK 350 AUDIO
    TITLE "0:"
    INDEX 01 12:07:20
  TRACK 351 AUDIO
    TITLE "4:cjc087_1838"
    INDEX 01 12:08:14
  TRACK 352 AUDIO
    TITLE "3:cjc087_1839"
    INDEX 01 12:09:58
  TRACK 353 AUDIO
    TITLE "0:"
    INDEX 01 12:11:47
  TRACK 354 AUDIO
    TITLE "4:cjc087_1840"
    INDEX 01 12:12:47
  TRACK 355 AUDIO
    TITLE "3:cjc087_1841"
    INDEX 01 12:15:35
  TRACK 356 AUDIO
    TITLE "0:"
    INDEX 01 12:18:14
  TRACK 357 AUDIO
    TITLE "5:cjc087_1842"
    INDEX 01 12:19:49
  TRACK 358 AUDIO
    TITLE "0:"
    INDEX 01 12:21:56
  TRACK 359 AUDIO
    TITLE "4:cjc087_1843"
    INDEX 01 12:22:53
  TRACK 360 AUDIO
    TITLE "3:cjc087_1844"
    INDEX 01 12:25:34
  TRACK 361 AUDIO
    TITLE "0:"
    INDEX 01 12:28:03
  TRACK 362 AUDIO
    TITLE "4:cjc087_1845"
    INDEX 01 12:28:73
  TRACK 363 AUDIO
    TITLE "3:cjc087_1846"
    INDEX 01 12:31:74
  TRACK 364 AUDIO
    TITLE "0:"
    INDEX 01 12:35:36
  TRACK 365 AUDIO
    TITLE "4:cjc087_1847"
    INDEX 01 12:36:34
  TRACK 366 AUDIO
    TITLE "3:cjc087_1848"
    INDEX 01 12:38:32
  TRACK 367 AUDIO
    TITLE "0:"
    INDEX 01 12:41:58
  TRACK 368 AUDIO
    TITLE "4:cjc087_1849"
    INDEX 01 12:42:58
  TRACK 369 AUDIO
    TITLE "3:cjc087_1850"
    INDEX 01 12:44:49
  TRACK 370 AUDIO
    TITLE "0:"
    INDEX 01 12:47:02
  TRACK 371 AUDIO
    TITLE "4:cjc087_1851"
    INDEX 01 12:48:00
  TRACK 372 AUDIO
    TITLE "3:cjc087_1852"
    INDEX 01 12:50:53
  TRACK 373 AUDIO
    TITLE "0:"
    INDEX 01 12:52:74
  TRACK 374 AUDIO
    TITLE "4:cjc087_1853"
    INDEX 01 12:53:71
  TRACK 375 AUDIO
    TITLE "3:cjc087_1854"
    INDEX 01 12:56:64
  TRACK 376 AUDIO
    TITLE "0:"
    INDEX 01 13:04:34
  TRACK 377 AUDIO
    TITLE "4:cjc087_1855"
    INDEX 01 13:05:29
  TRACK 378 AUDIO
    TITLE "3:cjc087_1856"
    INDEX 01 13:07:54
  TRACK 379 AUDIO
    TITLE "0:"
    INDEX 01 13:10:05
  TRACK 380 AUDIO
    TITLE "5:cjc087_1857"
    INDEX 01 13:11:42
  TRACK 381 AUDIO
    TITLE "0:"
    INDEX 01 13:13:62
  TRACK 382 AUDIO
    TITLE "3:cjc087_1858"
    INDEX 01 13:14:62
  TRACK 383 AUDIO
    TITLE "4:cjc087_1859"
    INDEX 01 13:18:01
  TRACK 384 AUDIO
    TITLE "0:"
    INDEX 01 13:20:62
  TRACK 385 AUDIO
    TITLE "3:cjc087_1860"
    INDEX 01 13:21:58
  TRACK 386 AUDIO
    TITLE "4:cjc087_1861"
    INDEX 01 13:24:15
  TRACK 387 AUDIO
    TITLE "0:"
    INDEX 01 13:26:22
  TRACK 388 AUDIO
    TITLE "3:cjc087_1862"
    INDEX 01 13:27:19
  TRACK 389 AUDIO
    TITLE "4:cjc087_1863"
    INDEX 01 13:30:06
  TRACK 390 AUDIO
    TITLE "0:"
    INDEX 01 13:31:44
  TRACK 391 AUDIO
    TITLE "3:cjc087_1864"
    INDEX 01 13:32:40
  TRACK 392 AUDIO
    TITLE "4:cjc087_1865"
    INDEX 01 13:35:03
  TRACK 393 AUDIO
    TITLE "0:"
    INDEX 01 13:38:56
  TRACK 394 AUDIO
    TITLE "3:cjc087_1866"
    INDEX 01 13:39:54
  TRACK 395 AUDIO
    TITLE "4:cjc087_1867"
    INDEX 01 13:41:57
  TRACK 396 AUDIO
    TITLE "0:"
    INDEX 01 13:43:44
  TRACK 397 AUDIO
    TITLE "3:cjc087_1868"
    INDEX 01 13:44:43
  TRACK 398 AUDIO
    TITLE "4:cjc087_1869"
    INDEX 01 13:46:60
  TRACK 399 AUDIO
    TITLE "0:"
    INDEX 01 13:48:39
  TRACK 400 AUDIO
    TITLE "3:cjc087_1870"
    INDEX 01 13:49:38
  TRACK 401 AUDIO
    TITLE "4:cjc087_1871"
    INDEX 01 13:52:00
  TRACK 402 AUDIO
    TITLE "0:"
    INDEX 01 13:54:06
  TRACK 403 AUDIO
    TITLE "5:cjc087_1872"
    INDEX 01 13:55:43
  TRACK 404 AUDIO
    TITLE "0:"
    INDEX 01 13:57:52
  TRACK 405 AUDIO
    TITLE "4:cjc087_1873"
    INDEX 01 13:58:55
  TRACK 406 AUDIO
    TITLE "3:cjc087_1874"
    INDEX 01 14:00:36
  TRACK 407 AUDIO
    TITLE "0:"
    INDEX 01 14:02:18
  TRACK 408 AUDIO
    TITLE "4:cjc087_1875"
    INDEX 01 14:03:17
  TRACK 409 AUDIO
    TITLE "3:cjc087_1876"
    INDEX 01 14:04:71
  TRACK 410 AUDIO
    TITLE "0:"
    INDEX 01 14:07:07
  TRACK 411 AUDIO
    TITLE "4:cjc087_1877"
    INDEX 01 14:08:06
  TRACK 412 AUDIO
    TITLE "3:cjc087_1878"
    INDEX 01 14:11:07
  TRACK 413 AUDIO
    TITLE "0:"
    INDEX 01 14:14:62
  TRACK 414 AUDIO
    TITLE "4:cjc087_1879"
    INDEX 01 14:15:61
  TRACK 415 AUDIO
    TITLE "3:cjc087_1880"
    INDEX 01 14:18:36
  TRACK 416 AUDIO
    TITLE "0:"
    INDEX 01 14:21:11
  TRACK 417 AUDIO
    TITLE "4:cjc087_1881"
    INDEX 01 14:22:08
  TRACK 418 AUDIO
    TITLE "3:cjc087_1882"
    INDEX 01 14:23:71
  TRACK 419 AUDIO
    TITLE "0:"
    INDEX 01 14:27:63
  TRACK 420 AUDIO
    TITLE "4:cjc087_1883"
    INDEX 01 14:28:62
  TRACK 421 AUDIO
    TITLE "3:cjc087_1884"
    INDEX 01 14:30:47
  TRACK 422 AUDIO
    TITLE "0:"
    INDEX 01 14:32:54
  TRACK 423 AUDIO
    TITLE "4:cjc087_1885"
    INDEX 01 14:33:51
  TRACK 424 AUDIO
    TITLE "3:cjc087_1886"
    INDEX 01 14:36:05
  TRACK 425 AUDIO
    TITLE "0:"
    INDEX 01 14:38:58
  TRACK 426 AUDIO
    TITLE "5:cjc087_1887"
    INDEX 01 14:40:20
  TRACK 427 AUDIO
    TITLE "0:"
    INDEX 01 14:42:21
  TRACK 428 AUDIO
    TITLE "3:cjc087_1888"
    INDEX 01 14:43:16
  TRACK 429 AUDIO
    TITLE "4:cjc087_1889"
    INDEX 01 14:47:14
  TRACK 430 AUDIO
    TITLE "0:"
    INDEX 01 14:49:37
  TRACK 431 AUDIO
    TITLE "3:cjc087_1890"
    INDEX 01 14:50:34
  TRACK 432 AUDIO
    TITLE "4:cjc087_1891"
    INDEX 01 14:53:42
  TRACK 433 AUDIO
    TITLE "0:"
    INDEX 01 14:57:66
  TRACK 434 AUDIO
    TITLE "3:cjc087_1892"
    INDEX 01 14:58:61
  TRACK 435 AUDIO
    TITLE "4:cjc087_1893"
    INDEX 01 15:01:03
  TRACK 436 AUDIO
    TITLE "0:"
    INDEX 01 15:02:22
  TRACK 437 AUDIO
    TITLE "3:cjc087_1894"
    INDEX 01 15:03:17
  TRACK 438 AUDIO
    TITLE "4:cjc087_1895"
    INDEX 01 15:04:66
  TRACK 439 AUDIO
    TITLE "0:"
    INDEX 01 15:06:39
  TRACK 440 AUDIO
    TITLE "3:cjc087_1896"
    INDEX 01 15:07:37
  TRACK 441 AUDIO
    TITLE "4:cjc087_1897"
    INDEX 01 15:09:26
  TRACK 442 AUDIO
    TITLE "0:"
    INDEX 01 15:12:40
  TRACK 443 AUDIO
    TITLE "3:cjc087_1898"
    INDEX 01 15:13:37
  TRACK 444 AUDIO
    TITLE "4:cjc087_1899"
    INDEX 01 15:15:28
  TRACK 445 AUDIO
    TITLE "0:"
    INDEX 01 15:17:27
  TRACK 446 AUDIO
    TITLE "2:cjc087_1900"
    INDEX 01 15:18:58
  TRACK 447 AUDIO
    TITLE "0:"
    INDEX 01 15:26:22
  TRACK 448 AUDIO
    TITLE "5:cjc087_1901"
    INDEX 01 15:27:67
  TRACK 449 AUDIO
    TITLE "0:"
    INDEX 01 15:30:12
  TRACK 450 AUDIO
    TITLE "4:cjc087_1902"
    INDEX 01 15:31:10
  TRACK 451 AUDIO
    TITLE "3:cjc087_1903"
    INDEX 01 15:33:05
  TRACK 452 AUDIO
    TITLE "0:"
    INDEX 01 15:35:39
  TRACK 453 AUDIO
    TITLE "4:cjc087_1904"
    INDEX 01 15:36:36
  TRACK 454 AUDIO
    TITLE "3:cjc087_1905"
    INDEX 01 15:38:21
  TRACK 455 AUDIO
    TITLE "0:"
    INDEX 01 15:41:00
  TRACK 456 AUDIO
    TITLE "4:cjc087_1906"
    INDEX 01 15:42:00
  TRACK 457 AUDIO
    TITLE "3:cjc087_1907"
    INDEX 01 15:44:06
  TRACK 458 AUDIO
    TITLE "0:"
    INDEX 01 15:46:29
  TRACK 459 AUDIO
    TITLE "4:cjc087_1908"
    INDEX 01 15:47:26
  TRACK 460 AUDIO
    TITLE "3:cjc087_1909"
    INDEX 01 15:49:74
  TRACK 461 AUDIO
    TITLE "0:"
    INDEX 01 15:52:47
  TRACK 462 AUDIO
    TITLE "4:cjc087_1910"
    INDEX 01 15:53:45
  TRACK 463 AUDIO
    TITLE "3:cjc087_1911"
    INDEX 01 15:56:33
  TRACK 464 AUDIO
    TITLE "0:"
    INDEX 01 15:59:57
  TRACK 465 AUDIO
    TITLE "4:cjc087_1912"
    INDEX 01 16:00:56
  TRACK 466 AUDIO
    TITLE "3:cjc087_1913"
    INDEX 01 16:02:67
  TRACK 467 AUDIO
    TITLE "0:"
    INDEX 01 16:05:10
  TRACK 468 AUDIO
    TITLE "4:cjc087_1914"
    INDEX 01 16:06:08
  TRACK 469 AUDIO
    TITLE "3:cjc087_1915"
    INDEX 01 16:07:68
  TRACK 470 AUDIO
    TITLE "0:"
    INDEX 01 16:10:39
  TRACK 471 AUDIO
    TITLE "5:cjc087_1916"
    INDEX 01 16:11:74
  TRACK 472 AUDIO
    TITLE "0:"
    INDEX 01 16:14:06
  TRACK 473 AUDIO
    TITLE "4:cjc087_1917"
    INDEX 01 16:15:03
  TRACK 474 AUDIO
    TITLE "3:cjc087_1918"
    INDEX 01 16:17:41
  TRACK 475 AUDIO
    TITLE "0:"
    INDEX 01 16:19:60
  TRACK 476 AUDIO
    TITLE "4:cjc087_1919"
    INDEX 01 16:20:57
  TRACK 477 AUDIO
    TITLE "3:cjc087_1920"
    INDEX 01 16:23:65
  TRACK 478 AUDIO
    TITLE "0:"
    INDEX 01 16:27:02
  TRACK 479 AUDIO
    TITLE "4:cjc087_1921"
    INDEX 01 16:28:02
  TRACK 480 AUDIO
    TITLE "3:cjc087_1922"
    INDEX 01 16:30:03
  TRACK 481 AUDIO
    TITLE "0:"
    INDEX 01 16:32:01
  TRACK 482 AUDIO
    TITLE "4:cjc087_1923"
    INDEX 01 16:33:01
  TRACK 483 AUDIO
    TITLE "3:cjc087_1924"
    INDEX 01 16:36:33
  TRACK 484 AUDIO
    TITLE "0:"
    INDEX 01 16:40:56
  TRACK 485 AUDIO
    TITLE "4:cjc087_1925"
    INDEX 01 16:41:55
  TRACK 486 AUDIO
    TITLE "3:cjc087_1926"
    INDEX 01 16:43:48
  TRACK 487 AUDIO
    TITLE "0:"
    INDEX 01 16:46:02
  TRACK 488 AUDIO
    TITLE "4:cjc087_1927"
    INDEX 01 16:46:70
  TRACK 489 AUDIO
    TITLE "3:cjc087_1928"
    INDEX 01 16:49:33
  TRACK 490 AUDIO
    TITLE "0:"
    INDEX 01 16:52:08
  TRACK 491 AUDIO
    TITLE "4:cjc087_1929"
    INDEX 01 16:53:08
  TRACK 492 AUDIO
    TITLE "3:cjc087_1930"
    INDEX 01 16:55:12
  TRACK 493 AUDIO
    TITLE "0:"
    INDEX 01 16:58:42
